<svg width="60" height="41" viewBox="0 0 60 41" fill="none" xmlns="http://www.w3.org/2000/svg">
<path d="M6 28.996C6 28.1051 7.07714 27.6589 7.70711 28.2889L12.2905 32.8723C12.9205 33.5023 12.4743 34.5794 11.5834 34.5794H7C6.44771 34.5794 6 34.1317 6 33.5794V28.996ZM6 24.1682C6 24.4334 6.10536 24.6878 6.29289 24.8753L15.7041 34.2865C15.8916 34.474 16.146 34.5794 16.4112 34.5794H21.5804C22.4713 34.5794 22.9175 33.5023 22.2875 32.8723L7.70711 18.2919C7.07714 17.6619 6 18.1081 6 18.999V24.1682ZM6 14.1712C6 14.4364 6.10536 14.6908 6.29289 14.8783L25.7011 34.2865C25.8886 34.474 26.143 34.5794 26.4082 34.5794H31.5774C32.4683 34.5794 32.9145 33.5023 32.2845 32.8723L7.70711 8.2949C7.07715 7.66494 6 8.1111 6 9.002V14.1712ZM15.997 14.1712C15.997 14.4364 16.1024 14.6908 16.2899 14.8783L34.2839 32.8723C34.9139 33.5023 35.991 33.0561 35.991 32.1652V26.996C35.991 26.7308 35.8856 26.4764 35.6981 26.2889L17.7041 8.29489C17.0741 7.66493 15.997 8.1111 15.997 9.002V14.1712ZM27.7011 8.2949C27.0711 7.66493 25.994 8.1111 25.994 9.002V14.1712C25.994 14.4364 26.0994 14.6908 26.2869 14.8783L34.2839 22.8753C34.9139 23.5053 35.991 23.0591 35.991 22.1682V16.999C35.991 16.7338 35.8856 16.4794 35.6981 16.2919L27.7011 8.2949ZM48.5248 29.1186L39.1121 19.7059C38.4821 19.0759 37.405 19.5221 37.405 20.413V33.5794C37.405 34.1317 37.8527 34.5794 38.405 34.5794H52.9856C53.5379 34.5794 53.9856 34.1317 53.9856 33.5794V32.3804C53.9856 31.8281 53.536 31.387 52.9883 31.3157C51.3076 31.0969 49.7355 30.3293 48.5248 29.1186ZM42.2035 31.3804C41.3206 31.3804 40.604 30.6638 40.604 29.7808C40.604 28.8979 41.3206 28.1813 42.2035 28.1813C43.0865 28.1813 43.8031 28.8979 43.8031 29.7808C43.8031 30.6638 43.0865 31.3804 42.2035 31.3804Z" fill="white"/>
</svg>
